<?xml version="1.0" encoding="UTF-8"?>
<!DOCTYPE svg PUBLIC "-//W3C//DTD SVG 1.1//EN" "http://www.w3.org/Graphics/SVG/1.1/DTD/svg11.dtd">
<svg xmlns="http://www.w3.org/2000/svg" version="1.1" width="790px" height="791px" style="shape-rendering:geometricPrecision; text-rendering:geometricPrecision; image-rendering:optimizeQuality; fill-rule:evenodd; clip-rule:evenodd" xmlns:xlink="http://www.w3.org/1999/xlink">
<g><path style="opacity:0.973" fill="#fafafb" d="M 374.5,-0.5 C 387.833,-0.5 401.167,-0.5 414.5,-0.5C 540.821,9.06441 641.654,64.3977 717,165.5C 759.835,227.182 784.001,295.515 789.5,370.5C 789.5,386.5 789.5,402.5 789.5,418.5C 778.328,548.723 719.328,650.889 612.5,725C 547.946,766.638 477.279,788.472 400.5,790.5C 396.5,790.5 392.5,790.5 388.5,790.5C 245.262,783.99 134.762,720.99 57,601.5C 23.6517,545.624 4.48506,485.29 -0.5,420.5C -0.5,403.5 -0.5,386.5 -0.5,369.5C 12.7746,229.708 79.108,123.542 198.5,51C 253.349,20.4582 312.015,3.29151 374.5,-0.5 Z"/></g>
<g><path style="opacity:1" fill="#0f4273" d="M 369.5,13.5 C 376.833,13.5 384.167,13.5 391.5,13.5C 391.208,70.1773 391.542,126.844 392.5,183.5C 378.155,186.175 365.155,191.841 353.5,200.5C 352.841,138.83 352.174,77.1632 351.5,15.5C 357.288,14.1901 363.288,13.5234 369.5,13.5 Z"/></g>
<g><path style="opacity:1" fill="#124678" d="M 369.5,13.5 C 391.037,12.1049 412.704,12.4382 434.5,14.5C 436.302,69.7527 436.968,125.086 436.5,180.5C 427.318,180.173 418.318,180.507 409.5,181.5C 403.697,181.209 398.031,181.875 392.5,183.5C 391.542,126.844 391.208,70.1773 391.5,13.5C 384.167,13.5 376.833,13.5 369.5,13.5 Z"/></g>
<g><path style="opacity:1" fill="#164c80" d="M 434.5,14.5 C 455.753,17.2174 476.753,21.2174 497.5,26.5C 498.783,271.5 500.116,516.5 501.5,761.5C 481.177,767.365 460.51,771.698 439.5,774.5C 439.755,728.574 439.755,682.574 439.5,636.5C 453.171,636.667 466.837,636.5 480.5,636C 482.286,635.215 483.786,634.049 485,632.5C 485.667,568.167 485.667,503.833 485,439.5C 479.011,412.693 463.178,395.026 437.5,386.5C 437.83,370.325 437.496,354.325 436.5,338.5C 463.415,327.744 479.582,308.078 485,279.5C 485.667,251.5 485.667,223.5 485,195.5C 482.432,188.599 477.598,184.099 470.5,182C 450.169,181.5 429.836,181.333 409.5,181.5C 418.318,180.507 427.318,180.173 436.5,180.5C 436.968,125.086 436.302,69.7527 434.5,14.5 Z"/></g>
<g><path style="opacity:1" fill="#0e3f6e" d="M 351.5,15.5 C 352.174,77.1632 352.841,138.83 353.5,200.5C 323.213,227.325 315.713,259.659 331,297.5C 336.484,308.807 343.984,318.473 353.5,326.5C 353.545,345.839 353.879,365.173 354.5,384.5C 347.978,384.177 341.645,384.51 335.5,385.5C 329.775,386.056 325.942,389.056 324,394.5C 323.333,453.167 323.333,511.833 324,570.5C 326.513,593.878 337.013,612.544 355.5,626.5C 355.733,675.834 356.067,725.168 356.5,774.5C 354.833,774.5 353.167,774.5 351.5,774.5C 340.541,773.895 329.875,772.228 319.5,769.5C 320.152,768.551 320.486,767.385 320.5,766C 318.684,536.513 317.184,307.013 316,77.5C 315.832,58.6622 315.332,39.9955 314.5,21.5C 322.9,19.0764 331.566,17.2431 340.5,16C 344.152,15.5014 347.818,15.3347 351.5,15.5 Z"/></g>
<g><path style="opacity:1" fill="#0c3d6b" d="M 314.5,21.5 C 315.332,39.9955 315.832,58.6622 316,77.5C 317.184,307.013 318.684,536.513 320.5,766C 320.486,767.385 320.152,768.551 319.5,769.5C 315.226,769.13 311.226,768.13 307.5,766.5C 308.167,743.002 308.5,719.336 308.5,695.5C 307.108,471.5 305.775,247.5 304.5,23.5C 307.544,21.9886 310.878,21.322 314.5,21.5 Z"/></g>
<g><path style="opacity:1" fill="#0b3a67" d="M 304.5,23.5 C 305.775,247.5 307.108,471.5 308.5,695.5C 308.5,719.336 308.167,743.002 307.5,766.5C 292.188,764.009 277.521,759.676 263.5,753.5C 262.78,515.015 261.447,276.349 259.5,37.5C 273.914,31.2529 288.914,26.5862 304.5,23.5 Z"/></g>
<g><path style="opacity:1" fill="#164f85" d="M 497.5,26.5 C 509.558,30.2971 521.558,34.2971 533.5,38.5C 535.223,275.497 536.557,512.497 537.5,749.5C 525.71,754.097 513.71,758.097 501.5,761.5C 500.116,516.5 498.783,271.5 497.5,26.5 Z"/></g>
<g><path style="opacity:1" fill="#093864" d="M 259.5,37.5 C 261.447,276.349 262.78,515.015 263.5,753.5C 260.458,753.267 257.792,752.267 255.5,750.5C 254.272,513.833 252.939,277.166 251.5,40.5C 253.89,38.9802 256.557,37.9802 259.5,37.5 Z"/></g>
<g><path style="opacity:1" fill="#083560" d="M 251.5,40.5 C 252.939,277.166 254.272,513.833 255.5,750.5C 238.469,744.164 222.136,736.498 206.5,727.5C 207.649,727.209 208.316,726.376 208.5,725C 206.607,504.518 205.274,284.018 204.5,63.5C 219.452,54.5245 235.119,46.8578 251.5,40.5 Z"/></g>
<g><path style="opacity:1" fill="#185289" d="M 533.5,38.5 C 540.407,41.1285 547.073,44.1285 553.5,47.5C 554.651,278.501 555.985,509.501 557.5,740.5C 550.833,743.5 544.167,746.5 537.5,749.5C 536.557,512.497 535.223,275.497 533.5,38.5 Z"/></g>
<g><path style="opacity:1" fill="#19558d" d="M 553.5,47.5 C 567.304,53.2319 580.304,60.2319 592.5,68.5C 593.798,285.5 595.132,502.5 596.5,719.5C 583.978,727.263 570.978,734.263 557.5,740.5C 555.985,509.501 554.651,278.501 553.5,47.5 Z"/></g>
<g><path style="opacity:1" fill="#06325c" d="M 204.5,63.5 C 205.274,284.018 206.607,504.518 208.5,725C 208.316,726.376 207.649,727.209 206.5,727.5C 199.624,724.236 193.29,720.236 187.5,715.5C 188.167,704.672 188.5,693.672 188.5,682.5C 187.128,500.168 185.961,317.835 185,135.5C 184.832,115.662 184.332,95.9957 183.5,76.5C 189.989,71.4181 196.989,67.0847 204.5,63.5 Z"/></g>
<g><path style="opacity:1" fill="#1b5892" d="M 592.5,68.5 C 608.739,77.4503 623.739,88.117 637.5,100.5C 638.74,295.832 639.74,491.165 640.5,686.5C 626.945,698.948 612.278,709.948 596.5,719.5C 595.132,502.5 593.798,285.5 592.5,68.5 Z"/></g>
<g><path style="opacity:1" fill="#053059" d="M 183.5,76.5 C 184.332,95.9957 184.832,115.662 185,135.5C 185.961,317.835 187.128,500.168 188.5,682.5C 188.5,693.672 188.167,704.672 187.5,715.5C 177.326,709.99 167.993,703.324 159.5,695.5C 160.166,686.506 160.5,677.34 160.5,668C 159.153,477.499 157.82,286.999 156.5,96.5C 161.06,91.8753 166.06,87.7087 171.5,84C 175.402,81.2488 179.402,78.7488 183.5,76.5 Z"/></g>
<g><path style="opacity:1" fill="#032d54" d="M 156.5,96.5 C 157.82,286.999 159.153,477.499 160.5,668C 160.5,677.34 160.166,686.506 159.5,695.5C 142.998,683.673 127.998,670.006 114.5,654.5C 115.167,644.005 115.5,633.339 115.5,622.5C 114.529,460.999 113.195,299.665 111.5,138.5C 124.693,122.432 139.693,108.432 156.5,96.5 Z"/></g>
<g><path style="opacity:1" fill="#1d5c97" d="M 637.5,100.5 C 640.603,102.423 643.603,104.59 646.5,107C 652.908,113.182 659.242,119.349 665.5,125.5C 666.668,303.832 667.668,482.166 668.5,660.5C 660.075,670.263 650.742,678.929 640.5,686.5C 639.74,491.165 638.74,295.832 637.5,100.5 Z"/></g>
<g><path style="opacity:1" fill="#1e5e9a" d="M 665.5,125.5 C 675.922,135.253 685.256,145.92 693.5,157.5C 694.558,314.499 695.558,471.499 696.5,628.5C 688.256,640.08 678.922,650.747 668.5,660.5C 667.668,482.166 666.668,303.832 665.5,125.5 Z"/></g>
<g><path style="opacity:1" fill="#01284d" d="M 111.5,138.5 C 113.195,299.665 114.529,460.999 115.5,622.5C 115.5,633.339 115.167,644.005 114.5,654.5C 59.1066,594.693 25.9399,524.026 15,442.5C 3.41741,335.638 30.4174,239.972 96,155.5C 101.033,149.638 106.199,143.971 111.5,138.5 Z"/></g>
<g><path style="opacity:1" fill="#20619f" d="M 693.5,157.5 C 709.159,176.188 722.492,196.521 733.5,218.5C 733.748,334.504 734.415,450.504 735.5,566.5C 724.998,588.861 711.998,609.527 696.5,628.5C 695.558,471.499 694.558,314.499 693.5,157.5 Z"/></g>
<g><path style="opacity:1" fill="#fdfdfd" d="M 409.5,181.5 C 429.836,181.333 450.169,181.5 470.5,182C 477.598,184.099 482.432,188.599 485,195.5C 485.667,223.5 485.667,251.5 485,279.5C 479.582,308.078 463.415,327.744 436.5,338.5C 423.507,342.624 410.173,344.291 396.5,343.5C 380.51,341.949 366.177,336.283 353.5,326.5C 343.984,318.473 336.484,308.807 331,297.5C 315.713,259.659 323.213,227.325 353.5,200.5C 365.155,191.841 378.155,186.175 392.5,183.5C 398.031,181.875 403.697,181.209 409.5,181.5 Z"/></g>
<g><path style="opacity:1" fill="#2465a4" d="M 733.5,218.5 C 770.054,288.474 783.554,362.808 774,441.5C 768.417,485.527 755.583,527.193 735.5,566.5C 734.415,450.504 733.748,334.504 733.5,218.5 Z"/></g>
<g><path style="opacity:1" fill="#104373" d="M 353.5,326.5 C 366.177,336.283 380.51,341.949 396.5,343.5C 398.454,356.921 399.121,370.588 398.5,384.5C 383.833,384.5 369.167,384.5 354.5,384.5C 353.879,365.173 353.545,345.839 353.5,326.5 Z"/></g>
<g><path style="opacity:1" fill="#144879" d="M 436.5,338.5 C 437.496,354.325 437.83,370.325 437.5,386.5C 403.52,385.535 369.52,385.201 335.5,385.5C 341.645,384.51 347.978,384.177 354.5,384.5C 369.167,384.5 383.833,384.5 398.5,384.5C 399.121,370.588 398.454,356.921 396.5,343.5C 410.173,344.291 423.507,342.624 436.5,338.5 Z"/></g>
<g><path style="opacity:1" fill="#fdfdfd" d="M 335.5,385.5 C 369.52,385.201 403.52,385.535 437.5,386.5C 463.178,395.026 479.011,412.693 485,439.5C 485.667,503.833 485.667,568.167 485,632.5C 483.786,634.049 482.286,635.215 480.5,636C 466.837,636.5 453.171,636.667 439.5,636.5C 426.5,636.5 413.5,636.5 400.5,636.5C 384.267,638.356 369.267,635.023 355.5,626.5C 337.013,612.544 326.513,593.878 324,570.5C 323.333,511.833 323.333,453.167 324,394.5C 325.942,389.056 329.775,386.056 335.5,385.5 Z"/></g>
<g><path style="opacity:1" fill="#0f4373" d="M 355.5,626.5 C 369.267,635.023 384.267,638.356 400.5,636.5C 400.278,683.173 400.611,729.84 401.5,776.5C 388.496,776.667 375.496,776.5 362.5,776C 358.644,775.823 354.977,775.323 351.5,774.5C 353.167,774.5 354.833,774.5 356.5,774.5C 356.067,725.168 355.733,675.834 355.5,626.5 Z"/></g>
<g><path style="opacity:1" fill="#114678" d="M 400.5,636.5 C 413.5,636.5 426.5,636.5 439.5,636.5C 439.755,682.574 439.755,728.574 439.5,774.5C 426.878,775.83 414.211,776.497 401.5,776.5C 400.611,729.84 400.278,683.173 400.5,636.5 Z"/></g>
</svg>
